<svg class="gv-svg" width="240" height="110"><defs><pattern id="home-hatch--4086803" class="home-hatch" patternUnits="userSpaceOnUse" width="4" height="4"><path d="M-1,1 l2,-2 M0,4 l4,-4 M3,5 l2,-2" class="home-hatch-stroke" style="stroke: rgb(255, 229, 0);"></path></pattern><pattern id="away-hatch--4086803" class="away-hatch" patternUnits="userSpaceOnUse" width="4" height="4"><path d="M-1,1 l2,-2 M0,4 l4,-4 M3,5 l2,-2" class="away-hatch-stroke" style="stroke: white;"></path></pattern><marker id="gv-arrow" markerWidth="6" markerHeight="6" refX="2" refY="3" orient="auto"><path d="M 0,1 L 5,3 L 0,5" fill="#f6f6f6"></path></marker></defs><g transform="translate(0, 0)"><g transform="translate(0, 73.7)"><line x1="0" x2="180" class="gv-goal-mark__line" style="stroke-dasharray: none;"></line></g><g transform="translate(0, 61.41666666666667)"><line x1="0" x2="180" class="gv-goal-mark__line"></line></g><g transform="translate(0, 49.13333333333334)"><line x1="0" x2="180" class="gv-goal-mark__line"></line></g><g transform="translate(0, 36.85)"><line x1="0" x2="180" class="gv-goal-mark__line"></line></g><g transform="translate(0, 24.56666666666667)"><line x1="0" x2="180" class="gv-goal-mark__line"></line></g><g transform="translate(0, 12.283333333333331)"><line x1="0" x2="180" class="gv-goal-mark__line"></line></g><line x1="90" x2="90" y1="0" y2="73.33333333333333" class="gv-half-divider"></line><g transform="translate(0, 120)"><line x1="0" x2="180" y1="0" y2="0" class="gv-shot-midline"></line><g transform="translate(0, 0)" class="gv-shot-g"></g><g transform="translate(1.9565217391304348, 0)" class="gv-shot-g"></g><g transform="translate(3.9130434782608696, 0)" class="gv-shot-g"></g><g transform="translate(5.869565217391304, 0)" class="gv-shot-g"></g><g transform="translate(7.826086956521739, 0)" class="gv-shot-g"></g><g transform="translate(9.782608695652174, 0)" class="gv-shot-g"></g><g transform="translate(11.739130434782608, 0)" class="gv-shot-g"></g><g transform="translate(13.695652173913045, 0)" class="gv-shot-g"></g><g transform="translate(15.652173913043478, 0)" class="gv-shot-g"></g><g transform="translate(17.608695652173914, 0)" class="gv-shot-g"></g><g transform="translate(19.565217391304348, 0)" class="gv-shot-g"></g><g transform="translate(21.521739130434785, 0)" class="gv-shot-g"></g><g transform="translate(23.478260869565215, 0)" class="gv-shot-g"><circle cy="-4" fill="#ffe500" class="gv-shot-dot" r="3"></circle></g><g transform="translate(25.43478260869565, 0)" class="gv-shot-g"></g><g transform="translate(27.39130434782609, 0)" class="gv-shot-g"></g><g transform="translate(29.347826086956523, 0)" class="gv-shot-g"></g><g transform="translate(31.304347826086957, 0)" class="gv-shot-g"></g><g transform="translate(33.26086956521739, 0)" class="gv-shot-g"></g><g transform="translate(35.21739130434783, 0)" class="gv-shot-g"></g><g transform="translate(37.17391304347826, 0)" class="gv-shot-g"><circle cy="4" fill="white" class="gv-shot-dot" r="3"></circle></g><g transform="translate(39.130434782608695, 0)" class="gv-shot-g"></g><g transform="translate(41.086956521739125, 0)" class="gv-shot-g"></g><g transform="translate(43.04347826086957, 0)" class="gv-shot-g"></g><g transform="translate(45, 0)" class="gv-shot-g"></g><g transform="translate(46.95652173913043, 0)" class="gv-shot-g"></g><g transform="translate(48.91304347826087, 0)" class="gv-shot-g"></g><g transform="translate(50.8695652173913, 0)" class="gv-shot-g"></g><g transform="translate(52.82608695652174, 0)" class="gv-shot-g"></g><g transform="translate(54.78260869565218, 0)" class="gv-shot-g"></g><g transform="translate(56.73913043478261, 0)" class="gv-shot-g"></g><g transform="translate(58.69565217391305, 0)" class="gv-shot-g"><circle cy="4" fill="white" class="gv-shot-dot" r="3"></circle><circle cy="10" fill="white" class="gv-shot-dot" r="3"></circle></g><g transform="translate(60.65217391304348, 0)" class="gv-shot-g"></g><g transform="translate(62.608695652173914, 0)" class="gv-shot-g"></g><g transform="translate(64.56521739130434, 0)" class="gv-shot-g"></g><g transform="translate(66.52173913043478, 0)" class="gv-shot-g"></g><g transform="translate(68.47826086956522, 0)" class="gv-shot-g"><circle cy="4" fill="white" class="gv-shot-dot" r="3"></circle></g><g transform="translate(70.43478260869566, 0)" class="gv-shot-g"></g><g transform="translate(72.3913043478261, 0)" class="gv-shot-g"></g><g transform="translate(74.34782608695652, 0)" class="gv-shot-g"></g><g transform="translate(76.30434782608695, 0)" class="gv-shot-g"></g><g transform="translate(78.26086956521739, 0)" class="gv-shot-g"></g><g transform="translate(80.21739130434783, 0)" class="gv-shot-g"></g><g transform="translate(82.17391304347825, 0)" class="gv-shot-g"></g><g transform="translate(84.1304347826087, 0)" class="gv-shot-g"></g><g transform="translate(86.08695652173914, 0)" class="gv-shot-g"></g><g transform="translate(88.04347826086956, 0)" class="gv-shot-g"><circle cy="4" fill="white" class="gv-shot-dot" r="3"></circle></g><g transform="translate(90, 0)" class="gv-shot-g"></g><g transform="translate(91.95652173913044, 0)" class="gv-shot-g"></g><g transform="translate(93.91304347826087, 0)" class="gv-shot-g"><circle cy="-4" fill="#ffe500" class="gv-shot-dot" r="3"></circle></g><g transform="translate(95.8695652173913, 0)" class="gv-shot-g"></g><g transform="translate(97.82608695652173, 0)" class="gv-shot-g"></g><g transform="translate(99.78260869565217, 0)" class="gv-shot-g"></g><g transform="translate(101.73913043478261, 0)" class="gv-shot-g"></g><g transform="translate(103.69565217391305, 0)" class="gv-shot-g"><circle cy="-4" fill="#ffe500" class="gv-shot-dot" r="3"></circle></g><g transform="translate(105.65217391304348, 0)" class="gv-shot-g"></g><g transform="translate(107.6086956521739, 0)" class="gv-shot-g"><circle cy="4" fill="white" class="gv-shot-dot" r="3"></circle></g><g transform="translate(109.56521739130434, 0)" class="gv-shot-g"></g><g transform="translate(111.52173913043478, 0)" class="gv-shot-g"></g><g transform="translate(113.47826086956522, 0)" class="gv-shot-g"><circle cy="4" fill="white" class="gv-shot-dot" r="3"></circle></g><g transform="translate(115.43478260869566, 0)" class="gv-shot-g"><circle cy="4" fill="white" class="gv-shot-dot" r="3"></circle><circle cy="10" fill="white" class="gv-shot-dot" r="3"></circle><circle cy="16" fill="white" class="gv-shot-dot" r="3"></circle></g><g transform="translate(117.3913043478261, 0)" class="gv-shot-g"></g><g transform="translate(119.34782608695653, 0)" class="gv-shot-g"></g><g transform="translate(121.30434782608695, 0)" class="gv-shot-g"></g><g transform="translate(123.26086956521739, 0)" class="gv-shot-g"><circle cy="-4" fill="#ffe500" class="gv-shot-dot" r="3"></circle><circle cy="-10" fill="#ffe500" class="gv-shot-dot" r="3"></circle></g><g transform="translate(125.21739130434783, 0)" class="gv-shot-g"></g><g transform="translate(127.17391304347825, 0)" class="gv-shot-g"></g><g transform="translate(129.1304347826087, 0)" class="gv-shot-g"></g><g transform="translate(131.08695652173913, 0)" class="gv-shot-g"><circle cy="4" fill="white" class="gv-shot-dot" r="3"></circle></g><g transform="translate(133.04347826086956, 0)" class="gv-shot-g"></g><g transform="translate(135, 0)" class="gv-shot-g"><circle cy="4" fill="white" class="gv-shot-dot" r="3"></circle></g><g transform="translate(136.95652173913044, 0)" class="gv-shot-g"></g><g transform="translate(138.91304347826087, 0)" class="gv-shot-g"></g><g transform="translate(140.8695652173913, 0)" class="gv-shot-g"><circle cy="-4" fill="#ffe500" class="gv-shot-dot" r="3"></circle></g><g transform="translate(142.82608695652175, 0)" class="gv-shot-g"></g><g transform="translate(144.7826086956522, 0)" class="gv-shot-g"></g><g transform="translate(146.73913043478262, 0)" class="gv-shot-g"></g><g transform="translate(148.69565217391306, 0)" class="gv-shot-g"></g><g transform="translate(150.65217391304347, 0)" class="gv-shot-g"></g><g transform="translate(152.6086956521739, 0)" class="gv-shot-g"></g><g transform="translate(154.56521739130434, 0)" class="gv-shot-g"></g><g transform="translate(156.52173913043478, 0)" class="gv-shot-g"></g><g transform="translate(158.47826086956522, 0)" class="gv-shot-g"></g><g transform="translate(160.43478260869566, 0)" class="gv-shot-g"></g><g transform="translate(162.3913043478261, 0)" class="gv-shot-g"><circle cy="4" fill="white" class="gv-shot-dot" r="3"></circle></g><g transform="translate(164.3478260869565, 0)" class="gv-shot-g"></g><g transform="translate(166.30434782608694, 0)" class="gv-shot-g"></g><g transform="translate(168.26086956521738, 0)" class="gv-shot-g"></g><g transform="translate(170.2173913043478, 0)" class="gv-shot-g"></g><g transform="translate(172.17391304347825, 0)" class="gv-shot-g"></g><g transform="translate(174.1304347826087, 0)" class="gv-shot-g"></g><g transform="translate(176.08695652173913, 0)" class="gv-shot-g"></g><g transform="translate(178.04347826086956, 0)" class="gv-shot-g"><circle cy="-4" fill="#ffe500" class="gv-shot-dot" r="3"></circle></g></g><path d="M0,73.7L0,73.7L1.9565217391304348,73.7L1.9565217391304348,73.7L3.9130434782608696,73.7L3.9130434782608696,73.7L5.869565217391304,73.7L5.869565217391304,73.7L7.826086956521739,73.7L7.826086956521739,73.7L9.782608695652174,73.7L9.782608695652174,73.7L11.739130434782608,73.7L11.739130434782608,73.7L13.695652173913045,73.7L13.695652173913045,73.7L15.652173913043478,73.7L15.652173913043478,73.7L17.608695652173914,73.7L17.608695652173914,73.7L19.565217391304348,73.7L19.565217391304348,73.7L21.521739130434785,73.7L21.521739130434785,73.7L23.478260869565215,73.7L23.478260869565215,73.7L25.43478260869565,73.7L25.43478260869565,73.7L27.39130434782609,73.7L27.39130434782609,73.7L29.347826086956523,73.7L29.347826086956523,73.7L31.304347826086957,73.7L31.304347826086957,73.7L33.26086956521739,73.7L33.26086956521739,73.7L35.21739130434783,73.7L35.21739130434783,73.7L37.17391304347826,73.7L37.17391304347826,73.7L39.130434782608695,73.7L39.130434782608695,73.7L41.086956521739125,73.7L41.086956521739125,73.7L43.04347826086957,73.7L43.04347826086957,73.7L45,73.7L45,73.7L46.95652173913043,73.7L46.95652173913043,73.7L48.91304347826087,73.7L48.91304347826087,73.7L50.8695652173913,73.7L50.8695652173913,73.7L52.82608695652174,73.7L52.82608695652174,73.7L54.78260869565218,73.7L54.78260869565218,73.7L56.73913043478261,73.7L56.73913043478261,73.7L54.78260869565218,73.7L54.78260869565218,73.7L52.82608695652174,73.7L52.82608695652174,73.7L50.8695652173913,73.7L50.8695652173913,73.7L48.91304347826087,73.7L48.91304347826087,73.7L46.95652173913043,73.7L46.95652173913043,73.7L45,73.7L45,73.7L43.04347826086957,73.7L43.04347826086957,73.7L41.086956521739125,73.7L41.086956521739125,73.7L39.130434782608695,73.7L39.130434782608695,73.7L37.17391304347826,73.7L37.17391304347826,73.7L35.21739130434783,73.7L35.21739130434783,73.7L33.26086956521739,73.7L33.26086956521739,73.7L31.304347826086957,73.7L31.304347826086957,73.7L29.347826086956523,73.7L29.347826086956523,73.7L27.39130434782609,73.7L27.39130434782609,73.7L25.43478260869565,73.7L25.43478260869565,73.7L23.478260869565215,73.7L23.478260869565215,73.7L21.521739130434785,73.7L21.521739130434785,73.7L19.565217391304348,73.7L19.565217391304348,73.7L17.608695652173914,73.7L17.608695652173914,73.7L15.652173913043478,73.7L15.652173913043478,73.7L13.695652173913045,73.7L13.695652173913045,73.7L11.739130434782608,73.7L11.739130434782608,73.7L9.782608695652174,73.7L9.782608695652174,73.7L7.826086956521739,73.7L7.826086956521739,73.7L5.869565217391304,73.7L5.869565217391304,73.7L3.9130434782608696,73.7L3.9130434782608696,73.7L1.9565217391304348,73.7L1.9565217391304348,73.7L0,73.7L0,73.7Z" class="gv-goal-steps gv-goal-steps--home" style="fill: url(&quot;#home-hatch--4086803&quot;);"></path><path d="M0,73.7L0,73.7L1.9565217391304348,73.7L1.9565217391304348,73.7L3.9130434782608696,73.7L3.9130434782608696,73.7L5.869565217391304,73.7L5.869565217391304,73.7L7.826086956521739,73.7L7.826086956521739,73.7L9.782608695652174,73.7L9.782608695652174,73.7L11.739130434782608,73.7L11.739130434782608,73.7L13.695652173913045,73.7L13.695652173913045,73.7L15.652173913043478,73.7L15.652173913043478,73.7L17.608695652173914,73.7L17.608695652173914,73.7L19.565217391304348,73.7L19.565217391304348,73.7L21.521739130434785,73.7L21.521739130434785,73.7L23.478260869565215,73.7L23.478260869565215,73.7L25.43478260869565,73.7L25.43478260869565,73.7L27.39130434782609,73.7L27.39130434782609,73.7L29.347826086956523,73.7L29.347826086956523,73.7L31.304347826086957,73.7L31.304347826086957,73.7L33.26086956521739,73.7L33.26086956521739,73.7L35.21739130434783,73.7L35.21739130434783,73.7L37.17391304347826,73.7L37.17391304347826,73.7L39.130434782608695,73.7L39.130434782608695,73.7L41.086956521739125,73.7L41.086956521739125,73.7L43.04347826086957,73.7L43.04347826086957,73.7L45,73.7L45,73.7L46.95652173913043,73.7L46.95652173913043,73.7L48.91304347826087,73.7L48.91304347826087,73.7L50.8695652173913,73.7L50.8695652173913,73.7L52.82608695652174,73.7L52.82608695652174,73.7L54.78260869565218,73.7L54.78260869565218,73.7L56.73913043478261,73.7L56.73913043478261,61.41666666666667L58.69565217391305,61.41666666666667L58.69565217391305,61.41666666666667L60.65217391304348,61.41666666666667L60.65217391304348,61.41666666666667L62.608695652173914,61.41666666666667L62.608695652173914,61.41666666666667L64.56521739130434,61.41666666666667L64.56521739130434,61.41666666666667L66.52173913043478,61.41666666666667L66.52173913043478,61.41666666666667L68.47826086956522,61.41666666666667L68.47826086956522,61.41666666666667L70.43478260869566,61.41666666666667L70.43478260869566,61.41666666666667L72.3913043478261,61.41666666666667L72.3913043478261,61.41666666666667L74.34782608695652,61.41666666666667L74.34782608695652,61.41666666666667L76.30434782608695,61.41666666666667L76.30434782608695,61.41666666666667L78.26086956521739,61.41666666666667L78.26086956521739,61.41666666666667L80.21739130434783,61.41666666666667L80.21739130434783,61.41666666666667L82.17391304347825,61.41666666666667L82.17391304347825,61.41666666666667L84.1304347826087,61.41666666666667L84.1304347826087,61.41666666666667L86.08695652173914,61.41666666666667L86.08695652173914,61.41666666666667L88.04347826086956,61.41666666666667L88.04347826086956,61.41666666666667L90,61.41666666666667L90,61.41666666666667L91.95652173913044,61.41666666666667L91.95652173913044,61.41666666666667L93.91304347826087,61.41666666666667L93.91304347826087,61.41666666666667L95.8695652173913,61.41666666666667L95.8695652173913,61.41666666666667L97.82608695652173,61.41666666666667L97.82608695652173,61.41666666666667L99.78260869565217,61.41666666666667L99.78260869565217,61.41666666666667L101.73913043478261,61.41666666666667L101.73913043478261,61.41666666666667L103.69565217391305,61.41666666666667L103.69565217391305,61.41666666666667L105.65217391304348,61.41666666666667L105.65217391304348,61.41666666666667L107.6086956521739,61.41666666666667L107.6086956521739,61.41666666666667L109.56521739130434,61.41666666666667L109.56521739130434,61.41666666666667L111.52173913043478,61.41666666666667L111.52173913043478,61.41666666666667L113.47826086956522,61.41666666666667L113.47826086956522,49.13333333333334L115.43478260869566,49.13333333333334L115.43478260869566,49.13333333333334L117.3913043478261,49.13333333333334L117.3913043478261,49.13333333333334L119.34782608695653,49.13333333333334L119.34782608695653,49.13333333333334L121.30434782608695,49.13333333333334L121.30434782608695,49.13333333333334L123.26086956521739,49.13333333333334L123.26086956521739,49.13333333333334L125.21739130434783,49.13333333333334L125.21739130434783,49.13333333333334L127.17391304347825,49.13333333333334L127.17391304347825,49.13333333333334L129.1304347826087,49.13333333333334L129.1304347826087,49.13333333333334L131.08695652173913,49.13333333333334L131.08695652173913,49.13333333333334L133.04347826086956,49.13333333333334L133.04347826086956,49.13333333333334L135,49.13333333333334L135,49.13333333333334L136.95652173913044,49.13333333333334L136.95652173913044,49.13333333333334L138.91304347826087,49.13333333333334L138.91304347826087,49.13333333333334L140.8695652173913,49.13333333333334L140.8695652173913,49.13333333333334L142.82608695652175,49.13333333333334L142.82608695652175,49.13333333333334L144.7826086956522,49.13333333333334L144.7826086956522,49.13333333333334L146.73913043478262,49.13333333333334L146.73913043478262,49.13333333333334L148.69565217391306,49.13333333333334L148.69565217391306,49.13333333333334L150.65217391304347,49.13333333333334L150.65217391304347,49.13333333333334L152.6086956521739,49.13333333333334L152.6086956521739,49.13333333333334L154.56521739130434,49.13333333333334L154.56521739130434,49.13333333333334L156.52173913043478,49.13333333333334L156.52173913043478,49.13333333333334L158.47826086956522,49.13333333333334L158.47826086956522,49.13333333333334L160.43478260869566,49.13333333333334L160.43478260869566,49.13333333333334L162.3913043478261,49.13333333333334L162.3913043478261,49.13333333333334L164.3478260869565,49.13333333333334L164.3478260869565,49.13333333333334L166.30434782608694,49.13333333333334L166.30434782608694,49.13333333333334L168.26086956521738,49.13333333333334L168.26086956521738,49.13333333333334L170.2173913043478,49.13333333333334L170.2173913043478,49.13333333333334L172.17391304347825,49.13333333333334L172.17391304347825,49.13333333333334L174.1304347826087,49.13333333333334L174.1304347826087,49.13333333333334L176.08695652173913,49.13333333333334L176.08695652173913,49.13333333333334L178.04347826086956,49.13333333333334L178.04347826086956,73.7L176.08695652173913,73.7L176.08695652173913,73.7L174.1304347826087,73.7L174.1304347826087,73.7L172.17391304347825,73.7L172.17391304347825,73.7L170.2173913043478,73.7L170.2173913043478,73.7L168.26086956521738,73.7L168.26086956521738,73.7L166.30434782608694,73.7L166.30434782608694,73.7L164.3478260869565,73.7L164.3478260869565,73.7L162.3913043478261,73.7L162.3913043478261,73.7L160.43478260869566,73.7L160.43478260869566,73.7L158.47826086956522,73.7L158.47826086956522,73.7L156.52173913043478,73.7L156.52173913043478,73.7L154.56521739130434,73.7L154.56521739130434,73.7L152.6086956521739,73.7L152.6086956521739,73.7L150.65217391304347,73.7L150.65217391304347,73.7L148.69565217391306,73.7L148.69565217391306,73.7L146.73913043478262,73.7L146.73913043478262,73.7L144.7826086956522,73.7L144.7826086956522,73.7L142.82608695652175,73.7L142.82608695652175,73.7L140.8695652173913,73.7L140.8695652173913,73.7L138.91304347826087,73.7L138.91304347826087,73.7L136.95652173913044,73.7L136.95652173913044,73.7L135,73.7L135,73.7L133.04347826086956,73.7L133.04347826086956,73.7L131.08695652173913,73.7L131.08695652173913,73.7L129.1304347826087,73.7L129.1304347826087,73.7L127.17391304347825,73.7L127.17391304347825,73.7L125.21739130434783,73.7L125.21739130434783,73.7L123.26086956521739,73.7L123.26086956521739,73.7L121.30434782608695,73.7L121.30434782608695,73.7L119.34782608695653,73.7L119.34782608695653,73.7L117.3913043478261,73.7L117.3913043478261,73.7L115.43478260869566,73.7L115.43478260869566,73.7L113.47826086956522,73.7L113.47826086956522,73.7L111.52173913043478,73.7L111.52173913043478,73.7L109.56521739130434,73.7L109.56521739130434,73.7L107.6086956521739,73.7L107.6086956521739,73.7L105.65217391304348,73.7L105.65217391304348,73.7L103.69565217391305,73.7L103.69565217391305,73.7L101.73913043478261,73.7L101.73913043478261,73.7L99.78260869565217,73.7L99.78260869565217,73.7L97.82608695652173,73.7L97.82608695652173,73.7L95.8695652173913,73.7L95.8695652173913,73.7L93.91304347826087,73.7L93.91304347826087,73.7L91.95652173913044,73.7L91.95652173913044,73.7L90,73.7L90,73.7L88.04347826086956,73.7L88.04347826086956,73.7L86.08695652173914,73.7L86.08695652173914,73.7L84.1304347826087,73.7L84.1304347826087,73.7L82.17391304347825,73.7L82.17391304347825,73.7L80.21739130434783,73.7L80.21739130434783,73.7L78.26086956521739,73.7L78.26086956521739,73.7L76.30434782608695,73.7L76.30434782608695,73.7L74.34782608695652,73.7L74.34782608695652,73.7L72.3913043478261,73.7L72.3913043478261,73.7L70.43478260869566,73.7L70.43478260869566,73.7L68.47826086956522,73.7L68.47826086956522,73.7L66.52173913043478,73.7L66.52173913043478,73.7L64.56521739130434,73.7L64.56521739130434,73.7L62.608695652173914,73.7L62.608695652173914,73.7L60.65217391304348,73.7L60.65217391304348,73.7L58.69565217391305,73.7L58.69565217391305,73.7L56.73913043478261,73.7L56.73913043478261,73.7L54.78260869565218,73.7L54.78260869565218,73.7L52.82608695652174,73.7L52.82608695652174,73.7L50.8695652173913,73.7L50.8695652173913,73.7L48.91304347826087,73.7L48.91304347826087,73.7L46.95652173913043,73.7L46.95652173913043,73.7L45,73.7L45,73.7L43.04347826086957,73.7L43.04347826086957,73.7L41.086956521739125,73.7L41.086956521739125,73.7L39.130434782608695,73.7L39.130434782608695,73.7L37.17391304347826,73.7L37.17391304347826,73.7L35.21739130434783,73.7L35.21739130434783,73.7L33.26086956521739,73.7L33.26086956521739,73.7L31.304347826086957,73.7L31.304347826086957,73.7L29.347826086956523,73.7L29.347826086956523,73.7L27.39130434782609,73.7L27.39130434782609,73.7L25.43478260869565,73.7L25.43478260869565,73.7L23.478260869565215,73.7L23.478260869565215,73.7L21.521739130434785,73.7L21.521739130434785,73.7L19.565217391304348,73.7L19.565217391304348,73.7L17.608695652173914,73.7L17.608695652173914,73.7L15.652173913043478,73.7L15.652173913043478,73.7L13.695652173913045,73.7L13.695652173913045,73.7L11.739130434782608,73.7L11.739130434782608,73.7L9.782608695652174,73.7L9.782608695652174,73.7L7.826086956521739,73.7L7.826086956521739,73.7L5.869565217391304,73.7L5.869565217391304,73.7L3.9130434782608696,73.7L3.9130434782608696,73.7L1.9565217391304348,73.7L1.9565217391304348,73.7L0,73.7L0,73.7Z" class="gv-goal-steps gv-goal-steps--away" style="fill: url(&quot;#away-hatch--4086803&quot;);"></path><path d="M0,73.7L0,73.7L1.9565217391304348,73.7L1.9565217391304348,73.7L3.9130434782608696,73.7L3.9130434782608696,73.7L5.869565217391304,73.7L5.869565217391304,73.7L7.826086956521739,73.7L7.826086956521739,73.7L9.782608695652174,73.7L9.782608695652174,73.7L11.739130434782608,73.7L11.739130434782608,73.7L13.695652173913045,73.7L13.695652173913045,73.7L15.652173913043478,73.7L15.652173913043478,73.7L17.608695652173914,73.7L17.608695652173914,73.7L19.565217391304348,73.7L19.565217391304348,73.7L21.521739130434785,73.7L21.521739130434785,73.7L23.478260869565215,73.7L23.478260869565215,73.7L25.43478260869565,73.7L25.43478260869565,73.7L27.39130434782609,73.7L27.39130434782609,73.7L29.347826086956523,73.7L29.347826086956523,73.7L31.304347826086957,73.7L31.304347826086957,73.7L33.26086956521739,73.7L33.26086956521739,73.7L35.21739130434783,73.7L35.21739130434783,73.7L37.17391304347826,73.7L37.17391304347826,73.7L39.130434782608695,73.7L39.130434782608695,73.7L41.086956521739125,73.7L41.086956521739125,73.7L43.04347826086957,73.7L43.04347826086957,73.7L45,73.7L45,73.7L46.95652173913043,73.7L46.95652173913043,73.7L48.91304347826087,73.7L48.91304347826087,73.7L50.8695652173913,73.7L50.8695652173913,73.7L52.82608695652174,73.7L52.82608695652174,73.7L54.78260869565218,73.7L54.78260869565218,73.7L56.73913043478261,73.7L56.73913043478261,61.41666666666667L58.69565217391305,61.41666666666667L58.69565217391305,61.41666666666667L60.65217391304348,61.41666666666667L60.65217391304348,61.41666666666667L62.608695652173914,61.41666666666667L62.608695652173914,61.41666666666667L64.56521739130434,61.41666666666667L64.56521739130434,61.41666666666667L66.52173913043478,61.41666666666667L66.52173913043478,61.41666666666667L68.47826086956522,61.41666666666667L68.47826086956522,61.41666666666667L70.43478260869566,61.41666666666667L70.43478260869566,61.41666666666667L72.3913043478261,61.41666666666667L72.3913043478261,61.41666666666667L74.34782608695652,61.41666666666667L74.34782608695652,61.41666666666667L76.30434782608695,61.41666666666667L76.30434782608695,61.41666666666667L78.26086956521739,61.41666666666667L78.26086956521739,61.41666666666667L80.21739130434783,61.41666666666667L80.21739130434783,61.41666666666667L82.17391304347825,61.41666666666667L82.17391304347825,61.41666666666667L84.1304347826087,61.41666666666667L84.1304347826087,61.41666666666667L86.08695652173914,61.41666666666667L86.08695652173914,61.41666666666667L88.04347826086956,61.41666666666667L88.04347826086956,61.41666666666667L90,61.41666666666667L90,61.41666666666667L91.95652173913044,61.41666666666667L91.95652173913044,61.41666666666667L93.91304347826087,61.41666666666667L93.91304347826087,61.41666666666667L95.8695652173913,61.41666666666667L95.8695652173913,61.41666666666667L97.82608695652173,61.41666666666667L97.82608695652173,61.41666666666667L99.78260869565217,61.41666666666667L99.78260869565217,61.41666666666667L101.73913043478261,61.41666666666667L101.73913043478261,61.41666666666667L103.69565217391305,61.41666666666667L103.69565217391305,61.41666666666667L105.65217391304348,61.41666666666667L105.65217391304348,61.41666666666667L107.6086956521739,61.41666666666667L107.6086956521739,61.41666666666667L109.56521739130434,61.41666666666667L109.56521739130434,61.41666666666667L111.52173913043478,61.41666666666667L111.52173913043478,61.41666666666667L113.47826086956522,61.41666666666667L113.47826086956522,49.13333333333334L115.43478260869566,49.13333333333334L115.43478260869566,49.13333333333334L117.3913043478261,49.13333333333334L117.3913043478261,49.13333333333334L119.34782608695653,49.13333333333334L119.34782608695653,49.13333333333334L121.30434782608695,49.13333333333334L121.30434782608695,49.13333333333334L123.26086956521739,49.13333333333334L123.26086956521739,49.13333333333334L125.21739130434783,49.13333333333334L125.21739130434783,49.13333333333334L127.17391304347825,49.13333333333334L127.17391304347825,49.13333333333334L129.1304347826087,49.13333333333334L129.1304347826087,49.13333333333334L131.08695652173913,49.13333333333334L131.08695652173913,49.13333333333334L133.04347826086956,49.13333333333334L133.04347826086956,49.13333333333334L135,49.13333333333334L135,49.13333333333334L136.95652173913044,49.13333333333334L136.95652173913044,49.13333333333334L138.91304347826087,49.13333333333334L138.91304347826087,49.13333333333334L140.8695652173913,49.13333333333334L140.8695652173913,49.13333333333334L142.82608695652175,49.13333333333334L142.82608695652175,49.13333333333334L144.7826086956522,49.13333333333334L144.7826086956522,49.13333333333334L146.73913043478262,49.13333333333334L146.73913043478262,49.13333333333334L148.69565217391306,49.13333333333334L148.69565217391306,49.13333333333334L150.65217391304347,49.13333333333334L150.65217391304347,49.13333333333334L152.6086956521739,49.13333333333334L152.6086956521739,49.13333333333334L154.56521739130434,49.13333333333334L154.56521739130434,49.13333333333334L156.52173913043478,49.13333333333334L156.52173913043478,49.13333333333334L158.47826086956522,49.13333333333334L158.47826086956522,49.13333333333334L160.43478260869566,49.13333333333334L160.43478260869566,49.13333333333334L162.3913043478261,49.13333333333334L162.3913043478261,49.13333333333334L164.3478260869565,49.13333333333334L164.3478260869565,49.13333333333334L166.30434782608694,49.13333333333334L166.30434782608694,49.13333333333334L168.26086956521738,49.13333333333334L168.26086956521738,49.13333333333334L170.2173913043478,49.13333333333334L170.2173913043478,49.13333333333334L172.17391304347825,49.13333333333334L172.17391304347825,49.13333333333334L174.1304347826087,49.13333333333334L174.1304347826087,49.13333333333334L176.08695652173913,49.13333333333334L176.08695652173913,49.13333333333334L178.04347826086956,49.13333333333334" class="gv-goal-steps gv-goal-steps--away--line" style="stroke: white;"></path><path d="M0,73.7L0,73.7L1.9565217391304348,73.7L1.9565217391304348,73.7L3.9130434782608696,73.7L3.9130434782608696,73.7L5.869565217391304,73.7L5.869565217391304,73.7L7.826086956521739,73.7L7.826086956521739,73.7L9.782608695652174,73.7L9.782608695652174,73.7L11.739130434782608,73.7L11.739130434782608,73.7L13.695652173913045,73.7L13.695652173913045,73.7L15.652173913043478,73.7L15.652173913043478,73.7L17.608695652173914,73.7L17.608695652173914,73.7L19.565217391304348,73.7L19.565217391304348,73.7L21.521739130434785,73.7L21.521739130434785,73.7L23.478260869565215,73.7L23.478260869565215,73.7L25.43478260869565,73.7L25.43478260869565,73.7L27.39130434782609,73.7L27.39130434782609,73.7L29.347826086956523,73.7L29.347826086956523,73.7L31.304347826086957,73.7L31.304347826086957,73.7L33.26086956521739,73.7L33.26086956521739,73.7L35.21739130434783,73.7L35.21739130434783,73.7L37.17391304347826,73.7L37.17391304347826,73.7L39.130434782608695,73.7L39.130434782608695,73.7L41.086956521739125,73.7L41.086956521739125,73.7L43.04347826086957,73.7L43.04347826086957,73.7L45,73.7L45,73.7L46.95652173913043,73.7L46.95652173913043,73.7L48.91304347826087,73.7L48.91304347826087,73.7L50.8695652173913,73.7L50.8695652173913,73.7L52.82608695652174,73.7L52.82608695652174,73.7L54.78260869565218,73.7L54.78260869565218,73.7L56.73913043478261,73.7L56.73913043478261,73.7L58.69565217391305,73.7L58.69565217391305,73.7L60.65217391304348,73.7L60.65217391304348,73.7L62.608695652173914,73.7L62.608695652173914,73.7L64.56521739130434,73.7L64.56521739130434,73.7L66.52173913043478,73.7L66.52173913043478,73.7L68.47826086956522,73.7L68.47826086956522,73.7L70.43478260869566,73.7L70.43478260869566,73.7L72.3913043478261,73.7L72.3913043478261,73.7L74.34782608695652,73.7L74.34782608695652,73.7L76.30434782608695,73.7L76.30434782608695,73.7L78.26086956521739,73.7L78.26086956521739,73.7L80.21739130434783,73.7L80.21739130434783,73.7L82.17391304347825,73.7L82.17391304347825,73.7L84.1304347826087,73.7L84.1304347826087,73.7L86.08695652173914,73.7L86.08695652173914,73.7L88.04347826086956,73.7L88.04347826086956,73.7L90,73.7L90,73.7L91.95652173913044,73.7L91.95652173913044,73.7L93.91304347826087,73.7L93.91304347826087,73.7L95.8695652173913,73.7L95.8695652173913,73.7L97.82608695652173,73.7L97.82608695652173,73.7L99.78260869565217,73.7L99.78260869565217,73.7L101.73913043478261,73.7L101.73913043478261,73.7L103.69565217391305,73.7L103.69565217391305,73.7L105.65217391304348,73.7L105.65217391304348,73.7L107.6086956521739,73.7L107.6086956521739,73.7L109.56521739130434,73.7L109.56521739130434,73.7L111.52173913043478,73.7L111.52173913043478,73.7L113.47826086956522,73.7L113.47826086956522,73.7L115.43478260869566,73.7L115.43478260869566,73.7L117.3913043478261,73.7L117.3913043478261,73.7L119.34782608695653,73.7L119.34782608695653,73.7L121.30434782608695,73.7L121.30434782608695,73.7L123.26086956521739,73.7L123.26086956521739,73.7L125.21739130434783,73.7L125.21739130434783,73.7L127.17391304347825,73.7L127.17391304347825,73.7L129.1304347826087,73.7L129.1304347826087,73.7L131.08695652173913,73.7L131.08695652173913,73.7L133.04347826086956,73.7L133.04347826086956,73.7L135,73.7L135,73.7L136.95652173913044,73.7L136.95652173913044,73.7L138.91304347826087,73.7L138.91304347826087,73.7L140.8695652173913,73.7L140.8695652173913,73.7L142.82608695652175,73.7L142.82608695652175,73.7L144.7826086956522,73.7L144.7826086956522,73.7L146.73913043478262,73.7L146.73913043478262,73.7L148.69565217391306,73.7L148.69565217391306,73.7L150.65217391304347,73.7L150.65217391304347,73.7L152.6086956521739,73.7L152.6086956521739,73.7L154.56521739130434,73.7L154.56521739130434,73.7L156.52173913043478,73.7L156.52173913043478,73.7L158.47826086956522,73.7L158.47826086956522,73.7L160.43478260869566,73.7L160.43478260869566,73.7L162.3913043478261,73.7L162.3913043478261,73.7L164.3478260869565,73.7L164.3478260869565,73.7L166.30434782608694,73.7L166.30434782608694,73.7L168.26086956521738,73.7L168.26086956521738,73.7L170.2173913043478,73.7L170.2173913043478,73.7L172.17391304347825,73.7L172.17391304347825,73.7L174.1304347826087,73.7L174.1304347826087,73.7L176.08695652173913,73.7L176.08695652173913,73.7L178.04347826086956,73.7" class="gv-goal-steps gv-goal-steps--home--line" style="stroke: rgb(255, 229, 0);"></path><path d="M0,73.7L0,73.7L1.9565217391304348,73.7L1.9565217391304348,73.7L3.9130434782608696,73.7L3.9130434782608696,73.7L5.869565217391304,73.7L5.869565217391304,73.7L7.826086956521739,73.7L7.826086956521739,73.7L9.782608695652174,73.7L9.782608695652174,73.7L11.739130434782608,73.7L11.739130434782608,73.7L13.695652173913045,73.7L13.695652173913045,73.7L15.652173913043478,73.7L15.652173913043478,73.7L17.608695652173914,73.7L17.608695652173914,73.7L19.565217391304348,73.7L19.565217391304348,73.7L21.521739130434785,73.7L21.521739130434785,73.7L23.478260869565215,73.7L23.478260869565215,73.7L25.43478260869565,73.7L25.43478260869565,73.7L27.39130434782609,73.7L27.39130434782609,73.7L29.347826086956523,73.7L29.347826086956523,73.7L31.304347826086957,73.7L31.304347826086957,73.7L33.26086956521739,73.7L33.26086956521739,73.7L35.21739130434783,73.7L35.21739130434783,73.7L37.17391304347826,73.7L37.17391304347826,73.7L39.130434782608695,73.7L39.130434782608695,73.7L41.086956521739125,73.7L41.086956521739125,73.7L43.04347826086957,73.7L43.04347826086957,73.7L45,73.7L45,73.7L46.95652173913043,73.7L46.95652173913043,73.7L48.91304347826087,73.7L48.91304347826087,73.7L50.8695652173913,73.7L50.8695652173913,73.7L52.82608695652174,73.7L52.82608695652174,73.7L54.78260869565218,73.7L54.78260869565218,73.7L56.73913043478261,73.7" class="gv-goal-steps gv-goal-steps--equal--line"></path><g transform="translate(180, 73.7 )"><text x="3" y="4" class="gv-score__label gv-score__label--home" style="fill: rgb(255, 229, 0);">0</text></g><g transform="translate(180, 49.13333333333334 )"><text x="3" y="4" class="gv-score__label gv-score__label--away gv-score__label--winner" style="fill: white;">2</text></g></g><line x1="0" x2="230" y1="-62" y2="-62" class="gv-border"></line><line x1="0" x2="230" y1="-30" y2="-30" class="gv-border"></line><g transform="translate(0, -62)"><g transform="translate(0, -5)"><circle cx="158" cy="3" r="12" style="fill: rgb(255, 229, 0);"></circle><circle cx="174" cy="3" r="12" class="gv-team-circular-border"></circle><text x="174" y="8" class="gv-score-label gv-score-label--home">0</text><text x="0" y="8" class="gv-team-label gv-team-label--home">Sweden</text></g><g><circle cx="158" cy="32" r="12" style="fill: white;"></circle><circle cx="174" cy="32" r="12" class="gv-team-circular-border"></circle><text x="174" y="37" class="gv-score-label gv-score-label--away">2</text><text x="0" y="37" class="gv-team-label gv-team-label--away">England</text></g></g></svg>